<?xml version="1.0" standalone="no"?>
<!DOCTYPE svg PUBLIC "-//W3C//DTD SVG 20010904//EN"
 "http://www.w3.org/TR/2001/REC-SVG-20010904/DTD/svg10.dtd">
<svg version="1.0" xmlns="http://www.w3.org/2000/svg"
 width="112.000000pt" height="24.000000pt" viewBox="0 0 112.000000 24.000000"
 preserveAspectRatio="xMidYMid meet">

<g transform="translate(0.000000,24.000000) scale(0.100000,-0.100000)"
fill="#000000" stroke="none">
<path d="M0 120 l0 -120 560 0 560 0 0 120 0 120 -560 0 -560 0 0 -120z m178
-2 l-1 -43 -4 38 c-3 28 -9 37 -23 37 -14 0 -20 -9 -23 -37 l-4 -38 -1 43 c-2
40 -1 42 28 42 29 0 30 -2 28 -42z m66 33 c4 -5 -3 -7 -14 -4 -14 4 -20 0 -20
-12 0 -12 6 -16 20 -12 11 3 18 1 14 -4 -3 -5 -11 -9 -19 -9 -7 0 -16 -8 -18
-17 -3 -10 -5 1 -6 25 -1 35 2 42 18 42 11 0 22 -4 25 -9z m69 2 c-7 -2 -21
-2 -30 0 -10 3 -4 5 12 5 17 0 24 -2 18 -5z m44 -31 c13 10 13 8 -1 -14 -10
-16 -20 -28 -22 -28 -2 0 -3 19 -3 43 2 30 3 34 6 14 4 -25 7 -27 20 -15z m32
-4 l-2 -43 -6 35 c-7 33 -5 50 5 50 2 0 3 -19 3 -42z m82 15 c-12 -20 -14 -14
-5 12 4 9 9 14 11 11 3 -2 0 -13 -6 -23z m151 -45 c24 -2 43 -9 44 -16 1 -7 0
-8 -3 -2 -2 5 -25 10 -49 10 l-44 0 2 43 1 42 4 -37 c4 -35 6 -37 45 -40z m91
65 c-13 -2 -23 -9 -23 -14 0 -5 10 -10 23 -10 l22 -2 -22 -4 c-13 -2 -23 -11
-23 -18 0 -7 10 -16 23 -18 19 -4 18 -4 -5 -6 -26 -1 -28 2 -28 39 0 37 2 40
28 39 23 -2 24 -2 5 -6z m84 -13 c4 -12 3 -13 -5 -1 -14 19 -42 6 -42 -19 0
-25 28 -38 42 -19 8 12 9 11 5 -1 -6 -24 -44 -24 -52 -1 -10 33 4 63 28 59 11
-2 22 -10 24 -18z m61 13 c-13 -3 -18 -16 -20 -41 l-1 -37 -4 35 c-3 19 -10
38 -16 42 -7 4 4 7 23 7 19 -1 27 -3 18 -6z m68 -19 c1 -16 -3 -20 -17 -17
-13 4 -19 0 -19 -12 0 -12 6 -16 20 -12 11 3 20 1 20 -4 0 -5 -11 -9 -25 -9
-23 0 -25 4 -25 41 0 36 2 40 23 37 14 -2 22 -10 23 -24z m54 16 c0 -5 -5 -10
-11 -10 -5 0 -7 5 -4 10 3 6 8 10 11 10 2 0 4 -4 4 -10z m-441 -17 c8 7 7 -1
-3 -20 -9 -18 -22 -33 -29 -33 -8 0 -7 3 2 9 12 8 13 15 3 38 -11 24 -10 26 1
11 11 -14 16 -15 26 -5z m-236 -10 c-7 -2 -19 -2 -25 0 -7 3 -2 5 12 5 14 0
19 -2 13 -5z m676 -5 c6 10 10 8 14 -9 4 -13 4 -25 2 -28 -3 -2 -5 1 -5 7 0 7
-9 12 -20 12 -11 0 -20 -5 -20 -12 0 -6 -2 -9 -5 -7 -2 3 -2 15 2 28 4 17 8
19 14 9 8 -11 10 -11 18 0z m-666 -35 c-7 -2 -21 -2 -30 0 -10 3 -4 5 12 5 17
0 24 -2 18 -5z"/>
<path d="M890 140 c0 -5 7 -10 15 -10 8 0 15 5 15 10 0 6 -7 10 -15 10 -8 0
-15 -4 -15 -10z"/>
</g>
</svg>
